<svg viewBox="0 0 197 46" fill="none" xmlns="http://www.w3.org/2000/svg" color="#74adff" aria-label="Seneca logo" class="sc-iuxOeI gBdUlu"><path fill-rule="evenodd" clip-rule="evenodd" d="M23.954 18.6c-.244 0-.488-.235-.55-.529L22.366 5.457C22.06 2.17 22.732 0 23.954 0c1.284 0 1.895 2.17 1.59 5.457l-1.04 12.614c-.06.352-.305.528-.55.528zM23.955 27.4c.244 0 .489.235.55.529l1.039 12.614c.305 3.286-.367 5.457-1.59 5.457-1.283 0-1.894-2.171-1.588-5.457l1.039-12.614c0-.353.244-.529.55-.529zM28.477 23c0-.235.244-.47.55-.528l13.138-.998c3.422-.293 5.683.352 5.683 1.526 0 1.232-2.26 1.819-5.683 1.525l-13.138-.997c-.306-.059-.55-.293-.55-.528zM19.371 23c0 .235-.244.47-.55.528l-13.138.998C2.261 24.819 0 24.174 0 23c0-1.232 2.261-1.819 5.683-1.526l13.139.998c.305.059.55.293.55.528zM29.088 16.84c-.184-.177-.245-.47-.123-.646l5.99-7.217c1.527-1.877 3.177-2.582 4.032-1.701.917.88.184 2.405-1.772 3.872l-7.516 5.75c-.123.176-.428.117-.611-.059zM17.783 27.694c.183.176.244.47.122.645l-5.989 7.217c-1.527 1.878-3.177 2.582-4.033 1.702-.916-.88-.183-2.406 1.772-3.873l7.517-5.75c.122-.176.427-.117.61.059zM29.088 27.694c.183-.176.489-.235.672-.117l7.516 5.75c1.956 1.466 2.69 3.05 1.773 3.872-.917.88-2.506.176-4.034-1.702l-5.988-7.216c-.184-.118-.122-.411.06-.587zM17.782 16.84c-.183.175-.488.234-.672.117l-7.516-5.75C7.638 9.74 6.905 8.156 7.822 7.334c.916-.88 2.505-.176 4.033 1.702l5.989 7.217c.183.117.122.41-.062.586z" fill="currentColor"></path><path d="M67.258 11.559c2.628 0 4.705.939 6.172 2.757l-1.833 1.232c-1.1-1.408-2.567-2.17-4.4-2.17-1.467 0-2.689.352-3.605 1.114-.917.763-1.406 1.76-1.467 2.993 0 1.114.367 1.995 1.039 2.699.733.704 1.955 1.29 3.666 1.76 2.322.645 3.85 1.232 4.583 1.76.795.528 1.345 1.115 1.773 1.878.366.762.61 1.642.61 2.757 0 1.76-.672 3.227-1.955 4.342-1.283 1.115-2.994 1.702-5.072 1.76-3.239 0-5.683-1.114-7.333-3.285l2.017-1.291c1.1 1.819 2.872 2.699 5.194 2.757 1.528 0 2.75-.41 3.666-1.232.917-.821 1.406-1.819 1.406-3.05 0-.705-.122-1.291-.428-1.76-.244-.47-.672-.881-1.222-1.174-.55-.352-1.222-.646-2.078-.94-.855-.293-1.833-.586-2.933-.938-1.711-.528-2.994-1.29-3.789-2.23-.794-.938-1.222-2.17-1.222-3.696 0-1.76.672-3.168 2.078-4.283 1.405-1.115 2.994-1.76 5.133-1.76zm27.866.586v1.82H83.39v7.744h11v1.82h-11v8.448h12.221v1.819h-14.36v-21.65h13.872zm10.571 0l13.811 19.01h.061v-19.01h2.139v21.71h-2.689l-13.811-19.01h-.122v19.01h-2.139v-21.71h2.75zm38.743 0v1.82h-11.733v7.744h11v1.82h-11v8.448h12.222v1.819h-14.36v-21.65h13.871zm18.027-.586c3.361 0 5.928 1.115 7.822 3.403l-1.711 1.408c-.611-.939-1.466-1.643-2.566-2.171-1.039-.528-2.261-.763-3.545-.763-2.811 0-5.133.88-6.905 2.7-1.772 1.76-2.689 4.106-2.689 6.923 0 2.816.917 5.104 2.689 6.864 1.772 1.76 4.094 2.7 6.905 2.7 1.222 0 2.445-.294 3.728-.88 1.283-.587 2.261-1.409 2.994-2.524l1.711 1.232c-2.016 2.64-4.827 3.99-8.433 3.99-3.483 0-6.294-1.114-8.433-3.227-2.139-2.17-3.238-4.87-3.3-8.155 0-3.345 1.1-6.044 3.3-8.156 2.2-2.112 5.011-3.286 8.433-3.344zm17.661 14.668h10.388l-5.133-11.91-5.255 11.91zm6.477-14.082l9.533 21.71h-2.383l-2.444-5.75h-11.978l-2.566 5.75h-2.2l9.899-21.71h2.139z" fill="currentColor"></path></svg>